<?xml version="1.0" standalone="no"?>
<!DOCTYPE svg PUBLIC "-//W3C//DTD SVG 20010904//EN"
 "http://www.w3.org/TR/2001/REC-SVG-20010904/DTD/svg10.dtd">
<svg version="1.0" xmlns="http://www.w3.org/2000/svg"
 width="1024.000000pt" height="1024.000000pt" viewBox="0 0 1024.000000 1024.000000"
 preserveAspectRatio="xMidYMid meet">

<g transform="translate(0.000000,1024.000000) scale(0.100000,-0.100000)"
fill="#000000" stroke="none">
<path d="M0 5120 l0 -5120 5120 0 5120 0 0 5120 0 5120 -5120 0 -5120 0 0
-5120z m6878 554 c15 -10 31 -17 35 -16 5 1 6 -2 3 -7 -3 -5 2 -23 10 -41 31
-60 -6 -148 -72 -176 -45 -19 -70 -18 -120 6 -102 50 -96 198 10 246 38 17 98
12 134 -12z m-3720 -140 l-3 -106 -162 1 -163 2 0 -426 0 -425 -125 0 -125 0
0 425 0 425 -167 0 -168 0 2 102 c1 57 2 104 2 106 1 1 206 2 456 2 l456 0 -3
-106z m475 -195 c110 -37 187 -105 236 -208 23 -50 26 -68 26 -166 0 -100 -3
-116 -29 -172 -75 -164 -262 -254 -467 -225 -149 21 -261 99 -322 222 -30 60
-32 72 -32 170 0 97 2 110 32 172 46 98 132 177 227 208 101 33 227 32 329 -1z
m1958 20 l52 -11 -7 -92 c-11 -141 -9 -137 -62 -119 -29 10 -67 14 -103 11
-47 -3 -66 -10 -101 -38 -73 -58 -83 -93 -88 -328 l-5 -203 -116 3 -116 3 0
380 0 379 115 0 115 0 3 -63 3 -63 30 38 c39 49 93 85 149 100 58 16 68 16
131 3z m1947 -4 c126 -14 237 -98 265 -202 20 -73 20 -81 18 -350 l-1 -223
-110 0 -110 0 0 42 0 42 -27 -27 c-121 -115 -390 -92 -478 41 -81 123 -40 279
89 342 69 33 175 45 275 32 47 -7 96 -15 109 -18 18 -5 22 -2 22 16 0 36 -41
98 -76 115 -20 9 -60 15 -107 15 -60 0 -83 -5 -123 -26 -27 -14 -57 -33 -67
-42 -9 -8 -19 -13 -21 -11 -22 24 -95 146 -93 153 5 16 87 61 146 81 53 17
178 34 216 29 11 -2 44 -6 73 -9z m-3258 -261 c6 -276 8 -286 75 -318 62 -30
140 -19 187 26 61 57 63 63 68 311 l5 230 115 1 115 1 0 -380 0 -380 -112 -3
-113 -3 0 57 0 57 -35 -35 c-20 -19 -59 -48 -88 -64 -48 -27 -60 -29 -147 -28
-73 1 -106 6 -141 22 -66 29 -113 74 -140 134 -23 51 -24 65 -29 336 -3 183
-2 283 5 286 6 2 60 2 120 1 l110 -3 5 -248z m1670 235 c5 -8 33 -79 63 -159
31 -80 61 -158 68 -175 7 -16 13 -32 13 -35 8 -37 52 -138 57 -133 7 8 58 137
105 266 14 37 22 72 18 79 -4 6 -3 9 2 6 5 -3 25 34 44 82 l34 89 118 -3 c65
-2 121 -5 123 -8 3 -2 -4 -22 -14 -44 -18 -38 -88 -204 -209 -494 -33 -80 -68
-162 -76 -183 l-17 -38 -135 3 -135 3 -75 180 c-118 280 -200 476 -222 527
-11 25 -19 48 -16 50 2 3 58 3 125 2 91 -1 124 -5 129 -15z m965 -365 l0 -379
-117 -3 -118 -3 0 379 c0 208 2 381 4 383 2 2 55 3 118 3 l113 -1 0 -379z"/>
<path d="M3382 5144 c-74 -37 -106 -93 -106 -186 0 -59 4 -73 29 -110 54 -75
158 -108 239 -74 161 67 167 301 10 375 -59 28 -109 26 -172 -5z"/>
<path d="M7395 4913 c-52 -7 -85 -25 -100 -54 -23 -43 -18 -68 19 -105 31 -31
39 -34 95 -34 107 0 181 56 181 138 l0 40 -47 6 c-85 11 -117 14 -148 9z"/>
</g>
</svg>
